<svg width="44" height="42" viewBox="0 0 44 42" fill="none" xmlns="http://www.w3.org/2000/svg">
<path d="M33.9097 41.8573C36.6309 41.8573 38.8448 39.6434 38.8448 36.9219C38.8448 35.6037 38.3315 34.3646 37.3993 33.4324L32.7996 28.8327L33.6398 22.9507L44 3.98672L37.2979 0.117188L36.0676 2.38412L34.9222 1.72281C33.0752 0.656647 30.7055 1.29144 29.6394 3.13809L27.0612 7.60382C25.9924 9.45483 26.6255 11.8178 28.4769 12.8866L29.917 13.7181L28.5195 16.2929C28.1197 16.1526 27.69 16.0754 27.2429 16.0754H18.1331V13.4973H23.3757V5.76288H10.3988V13.4973H15.555V16.0754H14.266C12.1336 16.0754 10.3988 17.8102 10.3988 19.9429V26.3882H8.30371C6.63666 26.3882 5.16229 27.451 4.63492 29.0325L2.89703 34.2461C1.23267 34.6775 0 36.1925 0 37.9901V41.8573H33.9097ZM12.9769 8.341H20.7975V10.9191H12.9769V8.341ZM28.7031 39.2792H12.9769V23.8101H30.913L28.7031 39.2792ZM35.5761 35.2556C36.0212 35.7007 36.2666 36.2925 36.2666 36.9223C36.2666 38.2217 35.2092 39.2792 33.9097 39.2792H31.3074L32.3441 32.0232L35.5761 35.2556ZM38.3013 3.67352L40.5303 4.96057L31.6411 21.2316H31.11V19.9426C31.11 19.2134 30.907 18.5306 30.5548 17.9479L38.3013 3.67352ZM29.7659 10.6536C29.1489 10.2978 28.9378 9.50989 29.2939 8.89288L31.8721 4.42715C32.2276 3.81149 33.0178 3.60001 33.6331 3.95551L34.8376 4.65073L31.147 11.4512L29.7659 10.6536ZM12.9769 19.9426C12.9769 19.2319 13.5553 18.6535 14.266 18.6535H27.2429C27.9535 18.6535 28.5319 19.2319 28.5319 19.9426V21.2316H12.9769V19.9426ZM7.08078 29.8479C7.25635 29.3205 7.74814 28.9663 8.30371 28.9663H10.3988V34.1226H5.65576L7.08078 29.8479ZM2.57812 39.2792V37.9901C2.57812 37.2791 3.15652 36.701 3.86719 36.701H10.3988V39.2792H2.57812Z" fill="white"/>
</svg>
