<svg width="44" height="42" viewBox="0 0 44 42" fill="none" xmlns="http://www.w3.org/2000/svg">
<path d="M39.8456 3.73323C37.6782 1.55323 34.9082 0.352625 32.0462 0.352625C27.9256 0.352625 24.1638 2.84625 21.9999 6.79885C19.836 2.84634 16.0743 0.352539 11.9537 0.352539C8.72057 0.352539 5.69632 1.84369 3.43815 4.5514C1.24261 7.18403 0.0216708 10.6774 0.000219171 14.3879C-0.0182292 17.5753 1.12806 21.0022 3.40726 24.5739C5.17933 27.3508 7.6443 30.2333 10.7336 33.1411C15.9518 38.0528 21.0974 41.3134 21.3139 41.4498C21.5235 41.5818 21.7618 41.6479 22 41.6479C22.2397 41.6479 22.4792 41.5812 22.6896 41.4476C22.9046 41.3111 28.0132 38.0507 33.2122 33.1396C36.2895 30.2326 38.7511 27.3513 40.5287 24.5757C42.8135 21.0082 43.9813 17.5855 43.9997 14.4029C44.0235 10.3014 42.5093 6.41246 39.8456 3.73323ZM5.41513 6.20017C7.17554 4.08924 9.49764 2.92674 11.9537 2.92674C15.8817 2.92674 19.4231 5.97347 20.7658 10.5081C20.9277 11.0547 21.4299 11.4297 22 11.4297C22.5701 11.4297 23.0723 11.0547 23.2342 10.5081C24.5769 5.97339 28.1182 2.92674 32.0462 2.92674C34.2179 2.92674 36.3395 3.85774 38.0202 5.54821C40.2042 7.74486 41.4454 10.9667 41.4255 14.3879C41.4232 14.7841 41.3986 15.181 41.3539 15.5783H34.4154C34.2635 13.6036 32.6082 12.0432 30.5953 12.0432C28.4825 12.0432 26.7636 13.7621 26.7636 15.8748V21.1558C26.7636 21.8491 26.1996 22.4132 25.5063 22.4132C24.813 22.4132 24.2489 21.8491 24.2489 21.1558V17.5941C24.2489 15.4814 22.5301 13.7626 20.4174 13.7626C18.3047 13.7626 16.5858 15.4814 16.5858 17.5941V25.1919C16.5858 25.8852 16.0217 26.4493 15.3284 26.4493C14.6351 26.4493 14.071 25.8852 14.071 25.1919V20.4062C14.071 19.6954 13.4948 19.1191 12.7839 19.1191H3.49898C2.90846 17.5587 2.56524 15.9738 2.57433 14.4028C2.59235 11.2882 3.60118 8.37511 5.41513 6.20017ZM31.4742 31.2401C27.5381 34.9631 23.558 37.7665 21.9975 38.8196C20.4288 37.7683 16.4206 34.9637 12.4681 31.2385C9.72983 28.6578 6.67717 25.3048 4.69659 21.6933H11.4968V25.1918C11.4968 27.3046 13.2156 29.0234 15.3284 29.0234C17.4411 29.0234 19.16 27.3046 19.16 25.1918V17.594C19.16 16.9007 19.7241 16.3367 20.4174 16.3367C21.1107 16.3367 21.6747 16.9007 21.6747 17.594V21.1557C21.6747 23.2684 23.3936 24.9873 25.5063 24.9873C27.619 24.9873 29.3378 23.2684 29.3378 21.1557V15.8747C29.3378 15.1814 29.9019 14.6173 30.5953 14.6173C31.2886 14.6173 31.8526 15.1814 31.8526 15.8747V16.8653C31.8526 17.5762 32.4289 18.1524 33.1397 18.1524H40.7955C39.2392 23.0746 35.0784 27.8311 31.4742 31.2401Z" fill="#427FFE"/>
</svg>
